<svg xmlns="http://www.w3.org/2000/svg" class="logo logo-image-only" viewBox="0 0 150 180.67"><path class="logo-icon" d="M139.1 41.4c.3-.6.7-1.2 1-1.8l.3-.6c.3-.6.5-1.2.8-1.9.1-.2.2-.5.3-.7a13.32 13.32 0 00.5-1.9c.1-.3.1-.5.2-.8.1-.7.2-1.3.3-2 0-.2.1-.4.1-.7v-.2a9.7 9.7 0 00.1-1.7c0-.4.1-.8.1-1.2v-.2a3.75 3.75 0 00-.1-1.1 6.15 6.15 0 00-.1-1.4 6.75 6.75 0 00-.2-1.4c-.1-.4-.1-.9-.2-1.3l-.3-1.5c-.1-.4-.2-.8-.3-1.1-.2-.5-.3-1-.5-1.6l-.3-.9c-.2-.5-.5-1.1-.7-1.6a5.94 5.94 0 00-.4-.8l-.9-1.5c-.2-.3-.3-.5-.5-.8a12.13 12.13 0 00-1-1.4c-.2-.3-.4-.5-.6-.8s-.7-.8-1-1.2a5.72 5.72 0 00-.7-.8 5.24 5.24 0 00-1.1-1 6.47 6.47 0 00-.9-.8c-.4-.3-.7-.6-1.1-.9s-.7-.5-1-.8-.8-.5-1.2-.8-.7-.5-1.1-.7-.9-.5-1.3-.7a5.36 5.36 0 00-1.1-.5l-1.5-.6a6.89 6.89 0 01-1-.4c-.6-.2-1.2-.3-1.8-.5a2.92 2.92 0 00-.9-.2c-.6-.1-1.2-.2-1.9-.3-.3 0-.5-.1-.8-.1h-.2a1.7 1.7 0 01-.7-.1 13.4 13.4 0 00-2-.1H27.6a27.6 27.6 0 000 55.2h39.5l-48.7 84.1a27.62 27.62 0 0047.9 27.5L139 41.6c0-.1 0-.1.1-.2z"/></svg>